<svg width="21" height="24" viewBox="0 0 21 24" fill="none" xmlns="http://www.w3.org/2000/svg">
<path d="M18.3573 1.776C18.3573 2.032 18.1653 2.352 17.7813 2.736C17.2053 3.184 16.6293 3.632 16.0533 4.08C15.4773 4.464 14.9333 4.912 14.4213 5.424C13.9093 5.808 13.4293 6.224 12.9813 6.672C12.5973 7.056 12.1493 7.44 11.6373 7.824L9.04525 10.128C8.78925 10.32 8.40525 10.672 7.89325 11.184C7.44525 11.504 6.99725 11.856 6.54925 12.24C6.10125 12.56 5.65325 12.912 5.20525 13.296C4.88525 13.552 4.72525 13.744 4.72525 13.872C4.78925 13.936 4.98125 14.064 5.30125 14.256C6.00525 14.64 6.70925 14.992 7.41325 15.312C7.54125 15.44 7.66925 15.504 7.79725 15.504C8.50125 15.568 9.20525 15.856 9.90925 16.368L12.5013 17.808L16.2453 19.824C16.5653 19.952 16.8853 20.112 17.2053 20.304C17.5253 20.432 17.8453 20.56 18.1653 20.688C18.3573 20.752 18.6453 20.784 19.0293 20.784C19.7333 20.656 20.1493 20.976 20.2773 21.744C20.4053 22.448 20.2453 22.96 19.7973 23.28C19.6053 23.472 19.3493 23.6 19.0293 23.664C18.7733 23.664 18.4853 23.536 18.1653 23.28C17.3333 22.704 16.4693 22.224 15.5733 21.84C14.6773 21.456 13.7813 21.04 12.8853 20.592C11.4773 19.76 10.1653 19.024 8.94925 18.384C8.43725 18.128 7.92525 17.936 7.41325 17.808C6.96525 17.68 6.48525 17.488 5.97325 17.232C5.26925 16.912 4.53325 16.592 3.76525 16.272C3.06125 15.888 2.42125 15.376 1.84525 14.736C1.01325 13.904 1.10925 13.2 2.13325 12.624C2.64525 12.304 3.15725 11.984 3.66925 11.664C4.24525 11.28 4.78925 10.896 5.30125 10.512C5.62125 10.32 5.90925 10.096 6.16525 9.84C6.48525 9.52 6.80525 9.232 7.12525 8.976C7.50925 8.656 7.89325 8.304 8.27725 7.92C8.66125 7.536 9.07725 7.184 9.52525 6.864C10.2293 6.224 10.9333 5.616 11.6373 5.04C12.3413 4.4 13.0453 3.76 13.7493 3.12C14.1333 2.736 14.5173 2.352 14.9013 1.968C15.3493 1.584 15.7973 1.2 16.2453 0.815998C16.7573 0.367998 17.2693 0.303998 17.7813 0.623998C18.1653 0.943997 18.3573 1.328 18.3573 1.776Z" fill="#E3601D"/>
</svg>
