<svg width="36" height="38" viewBox="0 0 36 38" fill="none" xmlns="http://www.w3.org/2000/svg">
<path d="M33.1111 14.7143L30.3052 30.6306C29.9589 32.5941 29.7859 33.576 29.3341 34.3103C28.9355 34.9579 28.387 35.4679 27.7491 35.7842C27.0257 36.1429 26.1432 36.1429 24.378 36.1429H11.6219C9.85681 36.1429 8.97425 36.1429 8.25086 35.7842C7.61294 35.4679 7.06447 34.9579 6.66599 34.3103C6.21411 33.576 6.04103 32.5941 5.69485 30.6306L2.88889 14.7143M33.1111 14.7143H29.3333M33.1111 14.7143H35M2.88889 14.7143H1M2.88889 14.7143H6.66667M29.3333 14.7143H6.66667M29.3333 14.7143L23.6667 1.85718M6.66667 14.7143L12.3333 1.85718M12.3333 21.1429V27.5715M18 21.1429V27.5715M23.6667 21.1429V27.5715" stroke="white" stroke-width="2" stroke-linecap="round" stroke-linejoin="round"/>
</svg>
