<svg width="30" height="27" viewBox="0 0 30 27" fill="none" xmlns="http://www.w3.org/2000/svg">
<path d="M29 4.125H25.8889M29 13.5H21.2222M29 22.875H21.2222M7.22222 26V15.9394C7.22222 15.6144 7.22222 15.4519 7.19046 15.2964C7.16229 15.1586 7.11568 15.0252 7.05192 14.8997C6.98004 14.7584 6.87897 14.6316 6.67683 14.3777L1.54539 7.93478C1.34325 7.68098 1.24218 7.55408 1.1703 7.41277C1.10654 7.28739 1.05994 7.15394 1.03176 7.01603C1 6.86059 1 6.69808 1 6.37305V3.5C1 2.62492 1 2.18738 1.16954 1.85314C1.31869 1.55914 1.55666 1.32011 1.84935 1.1703C2.1821 1 2.6177 1 3.48889 1H17.1778C18.049 1 18.4846 1 18.8173 1.1703C19.1101 1.32011 19.3479 1.55914 19.4971 1.85314C19.6667 2.18738 19.6667 2.62492 19.6667 3.5V6.37305C19.6667 6.69808 19.6667 6.86059 19.6349 7.01603C19.6068 7.15394 19.5601 7.28739 19.4963 7.41277C19.4245 7.55408 19.3234 7.68098 19.1213 7.93478L13.9898 14.3777C13.7878 14.6316 13.6866 14.7584 13.6148 14.8997C13.551 15.0252 13.5043 15.1586 13.4762 15.2964C13.4444 15.4519 13.4444 15.6144 13.4444 15.9394V21.3125L7.22222 26Z" stroke="#092A6B" stroke-width="2" stroke-linecap="round" stroke-linejoin="round"/>
</svg>
