<svg width="39" height="39" viewBox="0 0 39 39" fill="none" xmlns="http://www.w3.org/2000/svg">
<path d="M19.9017 16.707H38.689C38.8963 17.8411 39 18.9245 39 19.957C39 23.6302 38.214 26.9098 36.6419 29.7959C35.0698 32.682 32.8282 34.9375 29.9173 36.5625C27.0063 38.1875 23.6678 39 19.9017 39C17.1894 39 14.6066 38.488 12.1535 37.4639C9.70033 36.4398 7.58405 35.056 5.80465 33.3125C4.02525 31.569 2.61296 29.4954 1.56777 27.0918C0.522591 24.6882 0 22.1576 0 19.5C0 16.8424 0.522591 14.3118 1.56777 11.9082C2.61296 9.50456 4.02525 7.43099 5.80465 5.6875C7.58405 3.94401 9.70033 2.56022 12.1535 1.53613C14.6066 0.512044 17.1894 0 19.9017 0C25.0844 0 29.5329 1.70117 33.2472 5.10352L27.8312 10.207C25.7063 8.19271 23.0631 7.18555 19.9017 7.18555C17.6731 7.18555 15.613 7.73568 13.7213 8.83594C11.8296 9.9362 10.3309 11.43 9.22525 13.3174C8.1196 15.2048 7.56678 17.2656 7.56678 19.5C7.56678 21.7344 8.1196 23.7952 9.22525 25.6826C10.3309 27.57 11.8296 29.0638 13.7213 30.1641C15.613 31.2643 17.6731 31.8145 19.9017 31.8145C21.4046 31.8145 22.7867 31.6113 24.0478 31.2051C25.309 30.7988 26.3455 30.291 27.1575 29.6816C27.9694 29.0723 28.6777 28.3783 29.2824 27.5996C29.887 26.821 30.3319 26.0846 30.6169 25.3906C30.902 24.6966 31.0963 24.0365 31.2 23.4102H19.9017V16.707Z" fill="#E3601D"/>
</svg>
