<svg width="230" height="39" viewBox="0 0 230 39" fill="none" xmlns="http://www.w3.org/2000/svg">
<path d="M16.9713 3.89086C17.4556 2.81302 17.6979 2.2741 18.0351 2.10814C18.328 1.96395 18.672 1.96395 18.9649 2.10814C19.3022 2.2741 19.5444 2.81302 20.0288 3.89086L23.8867 12.476C24.03 12.7947 24.1016 12.954 24.2124 13.076C24.3103 13.1839 24.4302 13.2703 24.5639 13.3294C24.7152 13.3962 24.8901 13.4145 25.2399 13.4511L34.6636 14.4377C35.8467 14.5616 36.4381 14.6235 36.7015 14.8903C36.9302 15.1221 37.0365 15.4467 36.9888 15.7676C36.934 16.137 36.4921 16.5319 35.6084 17.322L28.5689 23.6145C28.3078 23.848 28.1771 23.9649 28.0944 24.107C28.0212 24.233 27.9754 24.3726 27.9601 24.5171C27.9427 24.6804 27.9792 24.851 28.0522 25.1924L30.0184 34.3872C30.2652 35.5416 30.3887 36.1188 30.2142 36.4496C30.0625 36.7372 29.7843 36.9376 29.4619 36.9918C29.0907 37.0541 28.5754 36.7594 27.5448 36.1698L19.3363 31.4735C19.0316 31.2992 18.8793 31.2122 18.7174 31.178C18.5741 31.1479 18.426 31.1479 18.2826 31.178C18.1207 31.2122 17.9684 31.2992 17.6638 31.4735L9.45527 36.1698C8.42471 36.7594 7.90944 37.0541 7.53827 36.9918C7.21585 36.9376 6.93751 36.7372 6.78595 36.4496C6.61149 36.1188 6.7349 35.5416 6.98175 34.3872L8.94788 25.1924C9.02085 24.851 9.05734 24.6804 9.04001 24.5171C9.02468 24.3726 8.97892 24.233 8.9057 24.107C8.82295 23.9649 8.69232 23.848 8.43107 23.6145L1.39177 17.322C0.508025 16.5319 0.0661412 16.137 0.0112013 15.7676C-0.0364998 15.4467 0.0698027 15.1221 0.298559 14.8903C0.561919 14.6235 1.15347 14.5616 2.33659 14.4377L11.7603 13.4511C12.11 13.4145 12.2849 13.3962 12.4361 13.3294C12.5699 13.2703 12.6897 13.1839 12.7877 13.076C12.8985 12.954 12.9701 12.7947 13.1133 12.476L16.9713 3.89086Z" fill="#E3601D"/>
<path d="M112.513 3.89086C112.984 2.81302 113.22 2.2741 113.548 2.10814C113.833 1.96395 114.167 1.96395 114.452 2.10814C114.78 2.2741 115.016 2.81302 115.487 3.89086L119.241 12.476C119.381 12.7947 119.45 12.954 119.558 13.076C119.653 13.1839 119.77 13.2703 119.9 13.3294C120.047 13.3962 120.217 13.4145 120.558 13.4511L129.727 14.4377C130.878 14.5616 131.453 14.6235 131.71 14.8903C131.932 15.1221 132.036 15.4467 131.989 15.7676C131.936 16.137 131.506 16.5319 130.646 17.322L123.797 23.6145C123.543 23.848 123.416 23.9649 123.335 24.107C123.264 24.233 123.219 24.3726 123.204 24.5171C123.188 24.6804 123.223 24.851 123.294 25.1924L125.207 34.3872C125.447 35.5416 125.567 36.1188 125.398 36.4496C125.25 36.7372 124.979 36.9376 124.666 36.9918C124.304 37.0541 123.803 36.7594 122.8 36.1698L114.814 31.4735C114.517 31.2992 114.369 31.2122 114.212 31.178C114.072 31.1479 113.928 31.1479 113.789 31.178C113.631 31.2122 113.483 31.2992 113.186 31.4735L105.2 36.1698C104.197 36.7594 103.696 37.0541 103.335 36.9918C103.021 36.9376 102.75 36.7372 102.603 36.4496C102.433 36.1188 102.553 35.5416 102.793 34.3872L104.706 25.1924C104.777 24.851 104.813 24.6804 104.796 24.5171C104.781 24.3726 104.736 24.233 104.665 24.107C104.584 23.9649 104.457 23.848 104.203 23.6145L97.3542 17.322C96.4943 16.5319 96.0644 16.137 96.0109 15.7676C95.9645 15.4467 96.0679 15.1221 96.2905 14.8903C96.5467 14.6235 97.1223 14.5616 98.2734 14.4377L107.442 13.4511C107.783 13.4145 107.953 13.3962 108.1 13.3294C108.23 13.2703 108.347 13.1839 108.442 13.076C108.55 12.954 108.62 12.7947 108.759 12.476L112.513 3.89086Z" fill="#E3601D"/>
<path d="M64.9713 3.89086C65.4556 2.81302 65.6979 2.2741 66.0351 2.10814C66.328 1.96395 66.672 1.96395 66.9649 2.10814C67.3022 2.2741 67.5444 2.81302 68.0288 3.89086L71.8867 12.476C72.03 12.7947 72.1016 12.954 72.2124 13.076C72.3103 13.1839 72.4302 13.2703 72.5639 13.3294C72.7152 13.3962 72.8901 13.4145 73.2399 13.4511L82.6636 14.4377C83.8467 14.5616 84.4381 14.6235 84.7015 14.8903C84.9302 15.1221 85.0365 15.4467 84.9888 15.7676C84.934 16.137 84.4921 16.5319 83.6084 17.322L76.5689 23.6145C76.3078 23.848 76.1771 23.9649 76.0944 24.107C76.0212 24.233 75.9754 24.3726 75.9601 24.5171C75.9427 24.6804 75.9792 24.851 76.0522 25.1924L78.0184 34.3872C78.2652 35.5416 78.3887 36.1188 78.2142 36.4496C78.0625 36.7372 77.7843 36.9376 77.4619 36.9918C77.0907 37.0541 76.5754 36.7594 75.5448 36.1698L67.3363 31.4735C67.0316 31.2992 66.8793 31.2122 66.7174 31.178C66.5741 31.1479 66.426 31.1479 66.2826 31.178C66.1207 31.2122 65.9684 31.2992 65.6638 31.4735L57.4553 36.1698C56.4247 36.7594 55.9094 37.0541 55.5383 36.9918C55.2158 36.9376 54.9375 36.7372 54.7859 36.4496C54.6115 36.1188 54.7349 35.5416 54.9818 34.3872L56.9479 25.1924C57.0209 24.851 57.0573 24.6804 57.04 24.5171C57.0247 24.3726 56.9789 24.233 56.9057 24.107C56.823 23.9649 56.6923 23.848 56.4311 23.6145L49.3918 17.322C48.508 16.5319 48.0661 16.137 48.0112 15.7676C47.9635 15.4467 48.0698 15.1221 48.2986 14.8903C48.5619 14.6235 49.1535 14.5616 50.3366 14.4377L59.7603 13.4511C60.11 13.4145 60.2849 13.3962 60.4361 13.3294C60.5699 13.2703 60.6897 13.1839 60.7877 13.076C60.8985 12.954 60.9701 12.7947 61.1133 12.476L64.9713 3.89086Z" fill="#E3601D"/>
<path d="M159.971 3.89086C160.456 2.81302 160.698 2.2741 161.035 2.10814C161.328 1.96395 161.672 1.96395 161.965 2.10814C162.302 2.2741 162.544 2.81302 163.029 3.89086L166.887 12.476C167.03 12.7947 167.102 12.954 167.212 13.076C167.31 13.1839 167.43 13.2703 167.564 13.3294C167.715 13.3962 167.89 13.4145 168.24 13.4511L177.664 14.4377C178.847 14.5616 179.438 14.6235 179.702 14.8903C179.93 15.1221 180.036 15.4467 179.989 15.7676C179.934 16.137 179.492 16.5319 178.608 17.322L171.569 23.6145C171.308 23.848 171.177 23.9649 171.094 24.107C171.021 24.233 170.975 24.3726 170.96 24.5171C170.943 24.6804 170.979 24.851 171.052 25.1924L173.018 34.3872C173.265 35.5416 173.389 36.1188 173.214 36.4496C173.063 36.7372 172.784 36.9376 172.462 36.9918C172.091 37.0541 171.575 36.7594 170.545 36.1698L162.336 31.4735C162.032 31.2992 161.879 31.2122 161.717 31.178C161.574 31.1479 161.426 31.1479 161.283 31.178C161.121 31.2122 160.968 31.2992 160.664 31.4735L152.455 36.1698C151.425 36.7594 150.909 37.0541 150.538 36.9918C150.216 36.9376 149.938 36.7372 149.786 36.4496C149.611 36.1188 149.735 35.5416 149.982 34.3872L151.948 25.1924C152.021 24.851 152.057 24.6804 152.04 24.5171C152.025 24.3726 151.979 24.233 151.906 24.107C151.823 23.9649 151.692 23.848 151.431 23.6145L144.392 17.322C143.508 16.5319 143.066 16.137 143.011 15.7676C142.964 15.4467 143.07 15.1221 143.299 14.8903C143.562 14.6235 144.153 14.5616 145.337 14.4377L154.76 13.4511C155.11 13.4145 155.285 13.3962 155.436 13.3294C155.57 13.2703 155.69 13.1839 155.788 13.076C155.899 12.954 155.97 12.7947 156.113 12.476L159.971 3.89086Z" fill="#E3601D"/>
<path d="M207.971 3.89086C208.456 2.81302 208.698 2.2741 209.035 2.10814C209.328 1.96395 209.672 1.96395 209.965 2.10814C210.302 2.2741 210.544 2.81302 211.029 3.89086L214.887 12.476C215.03 12.7947 215.102 12.954 215.212 13.076C215.31 13.1839 215.43 13.2703 215.564 13.3294C215.715 13.3962 215.89 13.4145 216.24 13.4511L225.664 14.4377C226.847 14.5616 227.438 14.6235 227.702 14.8903C227.93 15.1221 228.036 15.4467 227.989 15.7676C227.934 16.137 227.492 16.5319 226.608 17.322L219.569 23.6145C219.308 23.848 219.177 23.9649 219.094 24.107C219.021 24.233 218.975 24.3726 218.96 24.5171C218.943 24.6804 218.979 24.851 219.052 25.1924L221.018 34.3872C221.265 35.5416 221.389 36.1188 221.214 36.4496C221.063 36.7372 220.784 36.9376 220.462 36.9918C220.091 37.0541 219.575 36.7594 218.545 36.1698L210.336 31.4735C210.032 31.2992 209.879 31.2122 209.717 31.178C209.574 31.1479 209.426 31.1479 209.283 31.178C209.121 31.2122 208.968 31.2992 208.664 31.4735L200.455 36.1698C199.425 36.7594 198.909 37.0541 198.538 36.9918C198.216 36.9376 197.938 36.7372 197.786 36.4496C197.611 36.1188 197.735 35.5416 197.982 34.3872L199.948 25.1924C200.021 24.851 200.057 24.6804 200.04 24.5171C200.025 24.3726 199.979 24.233 199.906 24.107C199.823 23.9649 199.692 23.848 199.431 23.6145L192.392 17.322C191.508 16.5319 191.066 16.137 191.011 15.7676C190.964 15.4467 191.07 15.1221 191.299 14.8903C191.562 14.6235 192.153 14.5616 193.337 14.4377L202.76 13.4511C203.11 13.4145 203.285 13.3962 203.436 13.3294C203.57 13.2703 203.69 13.1839 203.788 13.076C203.899 12.954 203.97 12.7947 204.113 12.476L207.971 3.89086Z" stroke="#E3601D" stroke-width="3" stroke-linecap="round" stroke-linejoin="round"/>
</svg>
