<svg width="25" height="25" viewBox="0 0 25 25" fill="none" xmlns="http://www.w3.org/2000/svg">
<path d="M1.15838e-06 12.4946C-0.000705595 14.1365 0.321998 15.7625 0.949688 17.2797C1.57779 18.7968 2.49842 20.1754 3.65906 21.3369C5.40732 23.086 7.63511 24.2772 10.0606 24.7598C12.486 25.2425 15.0001 24.9948 17.2848 24.0482C19.5694 23.1016 21.5219 21.4985 22.8953 19.4419C24.2687 17.3853 25.0011 14.9676 25 12.4946C25 11.744 24.9336 10.9946 24.8022 10.2555L22.1141 12.238C22.1141 12.3235 22.1195 12.409 22.1195 12.4946C22.1217 14.6434 21.4041 16.7311 20.0811 18.4244C18.758 20.1177 16.9061 21.3193 14.8206 21.8375C12.7349 22.3556 10.5358 22.1603 8.57406 21.2829C6.6126 20.4052 5.00145 18.8961 3.9975 16.9961C2.99345 15.0961 2.65483 12.9145 3.0357 10.7995C3.41656 8.68445 4.49495 6.75798 6.09875 5.32755C7.70183 3.8967 9.73803 3.0441 11.8823 2.90583C14.027 2.76743 16.1561 3.35117 17.9303 4.56396L20.3611 2.77364C18.5251 1.29202 16.3074 0.359968 13.9642 0.0851437C11.621 -0.189681 9.24791 0.203931 7.11891 1.22052C4.98973 2.23692 3.19148 3.83485 1.93183 5.82977C0.672178 7.8247 0.0023522 10.1352 1.15838e-06 12.4946Z" fill="#092A6B"/>
<path d="M12.5177 12.1287L7.74609 9.13554V12.7348L12.5177 15.7277L23.9433 7.30647C23.5404 6.42018 23.0367 5.58325 22.4422 4.81226L12.5177 12.1287Z" fill="#092A6B"/>
</svg>
